<mxfile host="app.diagrams.net" modified="2024-04-10T21:31:13.172Z" agent="Mozilla/5.0 (Windows NT 10.0; Win64; x64) AppleWebKit/537.36 (KHTML, like Gecko) Chrome/123.0.0.0 Safari/537.36" etag="PJ8GoUIWIaUj2SSdDbxv" version="24.0.7" type="device">
  <diagram id="C5RBs43oDa-KdzZeNtuy" name="Page-1">
    <mxGraphModel dx="3198" dy="1034" grid="1" gridSize="10" guides="1" tooltips="1" connect="1" arrows="1" fold="1" page="1" pageScale="1" pageWidth="827" pageHeight="1169" math="0" shadow="0">
      <root>
        <mxCell id="WIyWlLk6GJQsqaUBKTNV-0" />
        <mxCell id="WIyWlLk6GJQsqaUBKTNV-1" parent="WIyWlLk6GJQsqaUBKTNV-0" />
        <mxCell id="LWob3EdYY13DaShQMg7X-0" value="Pianeta" style="swimlane;fontStyle=1;align=center;verticalAlign=top;childLayout=stackLayout;horizontal=1;startSize=26;horizontalStack=0;resizeParent=1;resizeParentMax=0;resizeLast=0;collapsible=1;marginBottom=0;whiteSpace=wrap;html=1;" parent="WIyWlLk6GJQsqaUBKTNV-1" vertex="1">
          <mxGeometry x="370" y="650" width="310" height="180" as="geometry" />
        </mxCell>
        <mxCell id="LWob3EdYY13DaShQMg7X-1" value="- ArreyList&amp;lt;Luna&amp;gt;: listaLuune&lt;div&gt;+ Pianeta(String, double, double, double): Pianeta&lt;/div&gt;&lt;div&gt;&lt;br&gt;&lt;/div&gt;" style="text;strokeColor=none;fillColor=none;align=left;verticalAlign=top;spacingLeft=4;spacingRight=4;overflow=hidden;rotatable=0;points=[[0,0.5],[1,0.5]];portConstraint=eastwest;whiteSpace=wrap;html=1;" parent="LWob3EdYY13DaShQMg7X-0" vertex="1">
          <mxGeometry y="26" width="310" height="54" as="geometry" />
        </mxCell>
        <mxCell id="LWob3EdYY13DaShQMg7X-2" value="" style="line;strokeWidth=1;fillColor=none;align=left;verticalAlign=middle;spacingTop=-1;spacingLeft=3;spacingRight=3;rotatable=0;labelPosition=right;points=[];portConstraint=eastwest;strokeColor=inherit;" parent="LWob3EdYY13DaShQMg7X-0" vertex="1">
          <mxGeometry y="80" width="310" height="8" as="geometry" />
        </mxCell>
        <mxCell id="LWob3EdYY13DaShQMg7X-3" value="+ addLuna(Luna): Luna&lt;div&gt;+ rimuoviLuna(Luna): Luna&lt;/div&gt;&lt;div&gt;+ getListaLune(): ArreyList&lt;/div&gt;&lt;div&gt;+ getStringaListaLune(): String&lt;/div&gt;&lt;div&gt;+ toString(): String&lt;/div&gt;" style="text;strokeColor=none;fillColor=none;align=left;verticalAlign=top;spacingLeft=4;spacingRight=4;overflow=hidden;rotatable=0;points=[[0,0.5],[1,0.5]];portConstraint=eastwest;whiteSpace=wrap;html=1;" parent="LWob3EdYY13DaShQMg7X-0" vertex="1">
          <mxGeometry y="88" width="310" height="92" as="geometry" />
        </mxCell>
        <mxCell id="LWob3EdYY13DaShQMg7X-4" value="Luna" style="swimlane;fontStyle=1;align=center;verticalAlign=top;childLayout=stackLayout;horizontal=1;startSize=26;horizontalStack=0;resizeParent=1;resizeParentMax=0;resizeLast=0;collapsible=1;marginBottom=0;whiteSpace=wrap;html=1;" parent="WIyWlLk6GJQsqaUBKTNV-1" vertex="1">
          <mxGeometry x="1250" y="430" width="330" height="84" as="geometry" />
        </mxCell>
        <mxCell id="LWob3EdYY13DaShQMg7X-5" value="+ Luna" style="text;strokeColor=none;fillColor=none;align=left;verticalAlign=top;spacingLeft=4;spacingRight=4;overflow=hidden;rotatable=0;points=[[0,0.5],[1,0.5]];portConstraint=eastwest;whiteSpace=wrap;html=1;" parent="LWob3EdYY13DaShQMg7X-4" vertex="1">
          <mxGeometry y="26" width="330" height="24" as="geometry" />
        </mxCell>
        <mxCell id="LWob3EdYY13DaShQMg7X-6" value="" style="line;strokeWidth=1;fillColor=none;align=left;verticalAlign=middle;spacingTop=-1;spacingLeft=3;spacingRight=3;rotatable=0;labelPosition=right;points=[];portConstraint=eastwest;strokeColor=inherit;" parent="LWob3EdYY13DaShQMg7X-4" vertex="1">
          <mxGeometry y="50" width="330" height="8" as="geometry" />
        </mxCell>
        <mxCell id="LWob3EdYY13DaShQMg7X-7" value="+ Luna(String, double, double, double): Luna" style="text;strokeColor=none;fillColor=none;align=left;verticalAlign=top;spacingLeft=4;spacingRight=4;overflow=hidden;rotatable=0;points=[[0,0.5],[1,0.5]];portConstraint=eastwest;whiteSpace=wrap;html=1;" parent="LWob3EdYY13DaShQMg7X-4" vertex="1">
          <mxGeometry y="58" width="330" height="26" as="geometry" />
        </mxCell>
        <mxCell id="LWob3EdYY13DaShQMg7X-13" value="SistemaStellare" style="swimlane;fontStyle=1;align=center;verticalAlign=top;childLayout=stackLayout;horizontal=1;startSize=26;horizontalStack=0;resizeParent=1;resizeParentMax=0;resizeLast=0;collapsible=1;marginBottom=0;whiteSpace=wrap;html=1;" parent="WIyWlLk6GJQsqaUBKTNV-1" vertex="1">
          <mxGeometry x="-430" y="590" width="460" height="350" as="geometry" />
        </mxCell>
        <mxCell id="LWob3EdYY13DaShQMg7X-14" value="+ SistemaStellare (Stella, ArrayList&amp;lt;Pianeta&amp;gt;)" style="text;strokeColor=none;fillColor=none;align=left;verticalAlign=top;spacingLeft=4;spacingRight=4;overflow=hidden;rotatable=0;points=[[0,0.5],[1,0.5]];portConstraint=eastwest;whiteSpace=wrap;html=1;" parent="LWob3EdYY13DaShQMg7X-13" vertex="1">
          <mxGeometry y="26" width="460" height="34" as="geometry" />
        </mxCell>
        <mxCell id="LWob3EdYY13DaShQMg7X-15" value="" style="line;strokeWidth=1;fillColor=none;align=left;verticalAlign=middle;spacingTop=-1;spacingLeft=3;spacingRight=3;rotatable=0;labelPosition=right;points=[];portConstraint=eastwest;strokeColor=inherit;" parent="LWob3EdYY13DaShQMg7X-13" vertex="1">
          <mxGeometry y="60" width="460" height="8" as="geometry" />
        </mxCell>
        <mxCell id="LWob3EdYY13DaShQMg7X-16" value="+ SistemaStellare(Stella): Stella&lt;div&gt;+ pianetaEsistente(String): boolean&lt;/div&gt;&lt;div&gt;+ lunaEsistente(String): boolean&lt;/div&gt;&lt;div&gt;+ corpoCelesteEsistente(String): boolean&lt;/div&gt;&lt;div&gt;+ getListaPianeti(): ArrayList&lt;/div&gt;&lt;div&gt;+ getPianetaByName(String): pianeta&lt;/div&gt;&lt;div&gt;+ addPianeta(Pianeta): pianeta&lt;/div&gt;&lt;div&gt;+ rimuoviPianeta(Pianeta): pianeta&lt;/div&gt;&lt;div&gt;&lt;div&gt;+ getLunaByName(String): luna&lt;/div&gt;&lt;div&gt;+&lt;span style=&quot;background-color: initial;&quot;&gt;&amp;nbsp;getCorpoCelesteByName(String): corpoCeleste&lt;/span&gt;&lt;/div&gt;&lt;div&gt;&lt;span style=&quot;background-color: initial;&quot;&gt;+ getCentroDiMassa(): stringaReturn&lt;/span&gt;&lt;/div&gt;&lt;div&gt;&lt;span style=&quot;background-color: initial;&quot;&gt;+ toString(): String&lt;/span&gt;&lt;/div&gt;&lt;div&gt;&lt;span style=&quot;background-color: initial;&quot;&gt;+ percorsoLuna(LUna): String&lt;/span&gt;&lt;/div&gt;&lt;div&gt;&lt;span style=&quot;background-color: initial;&quot;&gt;+ getPianetaDiLuna(Luna): pianeta&lt;/span&gt;&lt;/div&gt;&lt;div&gt;- getPianetaDiLuna( CorpoCeleste): luna&lt;/div&gt;&lt;div&gt;+ calcolaDistanza(CorpoCeleste, CorpoCeleste): double&lt;/div&gt;&lt;div&gt;+ calcolaRotta(CorpoCeleste, CorpoCeleste): String&lt;/div&gt;&lt;div&gt;+ getPossibiliCollisioni(): String&lt;/div&gt;&lt;div&gt;&lt;br&gt;&lt;/div&gt;&lt;div&gt;&lt;span style=&quot;background-color: initial;&quot;&gt;&lt;br&gt;&lt;/span&gt;&lt;/div&gt;&lt;div&gt;&lt;br&gt;&lt;/div&gt;&lt;div&gt;&lt;br&gt;&lt;/div&gt;&lt;div&gt;&lt;br&gt;&lt;/div&gt;&lt;/div&gt;" style="text;strokeColor=none;fillColor=none;align=left;verticalAlign=top;spacingLeft=4;spacingRight=4;overflow=hidden;rotatable=0;points=[[0,0.5],[1,0.5]];portConstraint=eastwest;whiteSpace=wrap;html=1;" parent="LWob3EdYY13DaShQMg7X-13" vertex="1">
          <mxGeometry y="68" width="460" height="282" as="geometry" />
        </mxCell>
        <mxCell id="LWob3EdYY13DaShQMg7X-17" value="CorpoCeleste" style="swimlane;fontStyle=1;align=center;verticalAlign=top;childLayout=stackLayout;horizontal=1;startSize=26;horizontalStack=0;resizeParent=1;resizeParentMax=0;resizeLast=0;collapsible=1;marginBottom=0;whiteSpace=wrap;html=1;" parent="WIyWlLk6GJQsqaUBKTNV-1" vertex="1">
          <mxGeometry x="890" y="10" width="340" height="260" as="geometry" />
        </mxCell>
        <mxCell id="LWob3EdYY13DaShQMg7X-18" value="- String: id&lt;div&gt;-String: nome&lt;/div&gt;&lt;div&gt;-double: massa&lt;/div&gt;&lt;div&gt;-HashMap &amp;lt;String,double&amp;gt;: posizione&lt;/div&gt;&lt;div&gt;&lt;br&gt;&lt;div&gt;&lt;br&gt;&lt;/div&gt;&lt;/div&gt;" style="text;strokeColor=none;fillColor=none;align=left;verticalAlign=top;spacingLeft=4;spacingRight=4;overflow=hidden;rotatable=0;points=[[0,0.5],[1,0.5]];portConstraint=eastwest;whiteSpace=wrap;html=1;" parent="LWob3EdYY13DaShQMg7X-17" vertex="1">
          <mxGeometry y="26" width="340" height="74" as="geometry" />
        </mxCell>
        <mxCell id="LWob3EdYY13DaShQMg7X-19" value="" style="line;strokeWidth=1;fillColor=none;align=left;verticalAlign=middle;spacingTop=-1;spacingLeft=3;spacingRight=3;rotatable=0;labelPosition=right;points=[];portConstraint=eastwest;strokeColor=inherit;" parent="LWob3EdYY13DaShQMg7X-17" vertex="1">
          <mxGeometry y="100" width="340" height="8" as="geometry" />
        </mxCell>
        <mxCell id="LWob3EdYY13DaShQMg7X-20" value="+ getNome(): String&lt;div&gt;+ setNome(): String&lt;/div&gt;&lt;div&gt;+ getMassa(): double&lt;/div&gt;&lt;div&gt;+ setMassa(): double&lt;/div&gt;&lt;div&gt;+ setPosizione(double, double) : posizione&lt;/div&gt;&lt;div&gt;+ getPosizione(HashMap&amp;lt;String,double&amp;gt;): posizione&lt;/div&gt;&lt;div&gt;+ getId(): String&lt;/div&gt;&lt;div&gt;+ equals(obj): boolean&lt;/div&gt;&lt;div&gt;&lt;br&gt;&lt;/div&gt;&lt;div&gt;&lt;br&gt;&lt;/div&gt;" style="text;strokeColor=none;fillColor=none;align=left;verticalAlign=top;spacingLeft=4;spacingRight=4;overflow=hidden;rotatable=0;points=[[0,0.5],[1,0.5]];portConstraint=eastwest;whiteSpace=wrap;html=1;" parent="LWob3EdYY13DaShQMg7X-17" vertex="1">
          <mxGeometry y="108" width="340" height="152" as="geometry" />
        </mxCell>
        <mxCell id="LWob3EdYY13DaShQMg7X-21" value="Stella" style="swimlane;fontStyle=1;align=center;verticalAlign=top;childLayout=stackLayout;horizontal=1;startSize=26;horizontalStack=0;resizeParent=1;resizeParentMax=0;resizeLast=0;collapsible=1;marginBottom=0;whiteSpace=wrap;html=1;" parent="WIyWlLk6GJQsqaUBKTNV-1" vertex="1">
          <mxGeometry x="950" y="530" width="200" height="60" as="geometry" />
        </mxCell>
        <mxCell id="LWob3EdYY13DaShQMg7X-23" value="" style="line;strokeWidth=1;fillColor=none;align=left;verticalAlign=middle;spacingTop=-1;spacingLeft=3;spacingRight=3;rotatable=0;labelPosition=right;points=[];portConstraint=eastwest;strokeColor=inherit;" parent="LWob3EdYY13DaShQMg7X-21" vertex="1">
          <mxGeometry y="26" width="200" height="8" as="geometry" />
        </mxCell>
        <mxCell id="LWob3EdYY13DaShQMg7X-24" value="+ Stella(String, double): stella" style="text;strokeColor=none;fillColor=none;align=left;verticalAlign=top;spacingLeft=4;spacingRight=4;overflow=hidden;rotatable=0;points=[[0,0.5],[1,0.5]];portConstraint=eastwest;whiteSpace=wrap;html=1;" parent="LWob3EdYY13DaShQMg7X-21" vertex="1">
          <mxGeometry y="34" width="200" height="26" as="geometry" />
        </mxCell>
        <mxCell id="LWob3EdYY13DaShQMg7X-25" value="MyMath" style="swimlane;fontStyle=1;align=center;verticalAlign=top;childLayout=stackLayout;horizontal=1;startSize=26;horizontalStack=0;resizeParent=1;resizeParentMax=0;resizeLast=0;collapsible=1;marginBottom=0;whiteSpace=wrap;html=1;" parent="WIyWlLk6GJQsqaUBKTNV-1" vertex="1">
          <mxGeometry x="100" y="870" width="260" height="90" as="geometry" />
        </mxCell>
        <mxCell id="LWob3EdYY13DaShQMg7X-26" value="+ EPSILON: double" style="text;strokeColor=none;fillColor=none;align=left;verticalAlign=top;spacingLeft=4;spacingRight=4;overflow=hidden;rotatable=0;points=[[0,0.5],[1,0.5]];portConstraint=eastwest;whiteSpace=wrap;html=1;" parent="LWob3EdYY13DaShQMg7X-25" vertex="1">
          <mxGeometry y="26" width="260" height="26" as="geometry" />
        </mxCell>
        <mxCell id="LWob3EdYY13DaShQMg7X-27" value="" style="line;strokeWidth=1;fillColor=none;align=left;verticalAlign=middle;spacingTop=-1;spacingLeft=3;spacingRight=3;rotatable=0;labelPosition=right;points=[];portConstraint=eastwest;strokeColor=inherit;" parent="LWob3EdYY13DaShQMg7X-25" vertex="1">
          <mxGeometry y="52" width="260" height="8" as="geometry" />
        </mxCell>
        <mxCell id="LWob3EdYY13DaShQMg7X-28" value="+ doubleUguali(double, double): boolean" style="text;strokeColor=none;fillColor=none;align=left;verticalAlign=top;spacingLeft=4;spacingRight=4;overflow=hidden;rotatable=0;points=[[0,0.5],[1,0.5]];portConstraint=eastwest;whiteSpace=wrap;html=1;" parent="LWob3EdYY13DaShQMg7X-25" vertex="1">
          <mxGeometry y="60" width="260" height="30" as="geometry" />
        </mxCell>
        <mxCell id="LWob3EdYY13DaShQMg7X-29" value="App" style="swimlane;fontStyle=1;align=center;verticalAlign=top;childLayout=stackLayout;horizontal=1;startSize=26;horizontalStack=0;resizeParent=1;resizeParentMax=0;resizeLast=0;collapsible=1;marginBottom=0;whiteSpace=wrap;html=1;" parent="WIyWlLk6GJQsqaUBKTNV-1" vertex="1">
          <mxGeometry x="20" y="70" width="380" height="264" as="geometry" />
        </mxCell>
        <mxCell id="LWob3EdYY13DaShQMg7X-31" value="" style="line;strokeWidth=1;fillColor=none;align=left;verticalAlign=middle;spacingTop=-1;spacingLeft=3;spacingRight=3;rotatable=0;labelPosition=right;points=[];portConstraint=eastwest;strokeColor=inherit;" parent="LWob3EdYY13DaShQMg7X-29" vertex="1">
          <mxGeometry y="26" width="380" height="8" as="geometry" />
        </mxCell>
        <mxCell id="LWob3EdYY13DaShQMg7X-32" value="+ cercaLuna(SistemaStellare): Luna&lt;div&gt;+ cercaPianeta(SistemaStellare): Pianeta&lt;div&gt;+ cercaCorpoCeleste(SistemaStellare): CorpoCeleste&lt;/div&gt;&lt;div&gt;+aggiungiPianeta(SistemaStellare)&lt;br&gt;&lt;div&gt;+aggiungiLuna(SistemaStellare)&lt;/div&gt;&lt;div&gt;+ rimuoviPianeta(SistemaStellarfe)&lt;/div&gt;&lt;div&gt;+ cercaPéianetaDiLUna(SistemaStellare): pianeta&lt;/div&gt;&lt;div&gt;+ rimuoviLuna(SistemaStellare)&lt;/div&gt;&lt;div&gt;+ corpoCelesteEsistente(SistemaStellare): String&lt;/div&gt;&lt;div&gt;+ visualizzaLuneDiPianeta(SistemaStellare) :String&lt;/div&gt;&lt;div&gt;+ visualizzaPercorsoLuna(SistemaStellare): String&lt;/div&gt;&lt;div&gt;+ visualizzaRotta(SistemaStellare): String&lt;/div&gt;&lt;div&gt;+ visualizzaDistanza(SistemaStellare): double&lt;/div&gt;&lt;div&gt;+visualizzaCollisioni(SistemaStellare): String&lt;/div&gt;&lt;div&gt;+main(Stirng, args)&lt;/div&gt;&lt;div&gt;&lt;br&gt;&lt;div&gt;&lt;div&gt;&lt;br&gt;&lt;/div&gt;&lt;/div&gt;&lt;/div&gt;&lt;/div&gt;&lt;/div&gt;" style="text;strokeColor=none;fillColor=none;align=left;verticalAlign=top;spacingLeft=4;spacingRight=4;overflow=hidden;rotatable=0;points=[[0,0.5],[1,0.5]];portConstraint=eastwest;whiteSpace=wrap;html=1;" parent="LWob3EdYY13DaShQMg7X-29" vertex="1">
          <mxGeometry y="34" width="380" height="230" as="geometry" />
        </mxCell>
        <mxCell id="1_OLcoTXgozZR-znKWb_-1" style="edgeStyle=orthogonalEdgeStyle;rounded=0;orthogonalLoop=1;jettySize=auto;html=1;entryX=0.463;entryY=1.03;entryDx=0;entryDy=0;entryPerimeter=0;" edge="1" parent="WIyWlLk6GJQsqaUBKTNV-1" source="LWob3EdYY13DaShQMg7X-21" target="LWob3EdYY13DaShQMg7X-20">
          <mxGeometry relative="1" as="geometry">
            <Array as="points">
              <mxPoint x="1100" y="392" />
              <mxPoint x="1090" y="392" />
              <mxPoint x="1090" y="290" />
              <mxPoint x="1047" y="290" />
            </Array>
          </mxGeometry>
        </mxCell>
        <mxCell id="1_OLcoTXgozZR-znKWb_-2" style="edgeStyle=orthogonalEdgeStyle;rounded=0;orthogonalLoop=1;jettySize=auto;html=1;entryX=-0.003;entryY=0.147;entryDx=0;entryDy=0;entryPerimeter=0;" edge="1" parent="WIyWlLk6GJQsqaUBKTNV-1" source="LWob3EdYY13DaShQMg7X-0" target="LWob3EdYY13DaShQMg7X-20">
          <mxGeometry relative="1" as="geometry">
            <Array as="points">
              <mxPoint x="525" y="250" />
              <mxPoint x="860" y="250" />
              <mxPoint x="860" y="140" />
            </Array>
          </mxGeometry>
        </mxCell>
        <mxCell id="1_OLcoTXgozZR-znKWb_-3" style="edgeStyle=orthogonalEdgeStyle;rounded=0;orthogonalLoop=1;jettySize=auto;html=1;entryX=1.005;entryY=0.137;entryDx=0;entryDy=0;entryPerimeter=0;" edge="1" parent="WIyWlLk6GJQsqaUBKTNV-1" source="LWob3EdYY13DaShQMg7X-4" target="LWob3EdYY13DaShQMg7X-20">
          <mxGeometry relative="1" as="geometry">
            <Array as="points">
              <mxPoint x="1440" y="139" />
            </Array>
          </mxGeometry>
        </mxCell>
        <mxCell id="1_OLcoTXgozZR-znKWb_-4" style="edgeStyle=orthogonalEdgeStyle;rounded=0;orthogonalLoop=1;jettySize=auto;html=1;entryX=0.5;entryY=0;entryDx=0;entryDy=0;" edge="1" parent="WIyWlLk6GJQsqaUBKTNV-1" source="LWob3EdYY13DaShQMg7X-16" target="LWob3EdYY13DaShQMg7X-25">
          <mxGeometry relative="1" as="geometry" />
        </mxCell>
        <mxCell id="1_OLcoTXgozZR-znKWb_-5" style="edgeStyle=orthogonalEdgeStyle;rounded=0;orthogonalLoop=1;jettySize=auto;html=1;entryX=0.478;entryY=-0.007;entryDx=0;entryDy=0;entryPerimeter=0;" edge="1" parent="WIyWlLk6GJQsqaUBKTNV-1" source="LWob3EdYY13DaShQMg7X-32" target="LWob3EdYY13DaShQMg7X-13">
          <mxGeometry relative="1" as="geometry" />
        </mxCell>
        <mxCell id="1_OLcoTXgozZR-znKWb_-6" style="edgeStyle=orthogonalEdgeStyle;rounded=0;orthogonalLoop=1;jettySize=auto;html=1;entryX=0.001;entryY=0.137;entryDx=0;entryDy=0;entryPerimeter=0;" edge="1" parent="WIyWlLk6GJQsqaUBKTNV-1" source="LWob3EdYY13DaShQMg7X-32" target="LWob3EdYY13DaShQMg7X-3">
          <mxGeometry relative="1" as="geometry">
            <Array as="points">
              <mxPoint x="210" y="750" />
            </Array>
          </mxGeometry>
        </mxCell>
        <mxCell id="1_OLcoTXgozZR-znKWb_-7" style="edgeStyle=orthogonalEdgeStyle;rounded=0;orthogonalLoop=1;jettySize=auto;html=1;entryX=0.001;entryY=0.09;entryDx=0;entryDy=0;entryPerimeter=0;" edge="1" parent="WIyWlLk6GJQsqaUBKTNV-1" source="LWob3EdYY13DaShQMg7X-32" target="LWob3EdYY13DaShQMg7X-20">
          <mxGeometry relative="1" as="geometry">
            <Array as="points">
              <mxPoint x="645" y="120" />
              <mxPoint x="645" y="132" />
            </Array>
          </mxGeometry>
        </mxCell>
        <mxCell id="1_OLcoTXgozZR-znKWb_-8" style="edgeStyle=orthogonalEdgeStyle;rounded=0;orthogonalLoop=1;jettySize=auto;html=1;" edge="1" parent="WIyWlLk6GJQsqaUBKTNV-1" source="LWob3EdYY13DaShQMg7X-32" target="LWob3EdYY13DaShQMg7X-4">
          <mxGeometry relative="1" as="geometry">
            <Array as="points">
              <mxPoint x="1415" y="310" />
            </Array>
          </mxGeometry>
        </mxCell>
        <mxCell id="1_OLcoTXgozZR-znKWb_-9" style="edgeStyle=orthogonalEdgeStyle;rounded=0;orthogonalLoop=1;jettySize=auto;html=1;exitX=1;exitY=0.5;exitDx=0;exitDy=0;entryX=0;entryY=0.5;entryDx=0;entryDy=0;" edge="1" parent="WIyWlLk6GJQsqaUBKTNV-1" source="LWob3EdYY13DaShQMg7X-32" target="LWob3EdYY13DaShQMg7X-24">
          <mxGeometry relative="1" as="geometry">
            <Array as="points">
              <mxPoint x="400" y="577" />
            </Array>
          </mxGeometry>
        </mxCell>
      </root>
    </mxGraphModel>
  </diagram>
</mxfile>
